<?xml version="1.0" encoding="utf-8"?>
<!-- Generator: Adobe Illustrator 18.1.1, SVG Export Plug-In . SVG Version: 6.00 Build 0)  -->
<svg version="1.1" id="Layer_1" xmlns="http://www.w3.org/2000/svg" xmlns:xlink="http://www.w3.org/1999/xlink" x="0px" y="0px"
	 viewBox="0 0 165.5 144.4" enable-background="new 0 0 165.5 144.4" xml:space="preserve">
<g>
	<path fill="#30364D" d="M107.1,124.7H92.8c-1.4,8.3-3.2,15.1-5.5,19.1C94.9,141.7,101.7,134.8,107.1,124.7z"/>
	<path fill="#30364D" d="M69,52.1c0.2-4.8,0.6-9.6,1-14.3H51c-1.2,4.5-2.2,9.3-2.9,14.3H69z"/>
	<path fill="#30364D" d="M96.1,89.9c-0.2,4.7-0.5,9.6-0.9,14.3h19.4c1.1-4.5,2-9.3,2.6-14.3H96.1z"/>
	<path fill="#30364D" d="M91.9,107.3H73.1c0.5,5.1,1,9.9,1.7,14.3h15.4C90.9,117.2,91.4,112.4,91.9,107.3z"/>
	<path fill="#30364D" d="M96.5,72.5c0,4.5-0.1,9.3-0.3,14.3h21.4c0.5-4.6,0.7-9.4,0.7-14.3H96.5z"/>
	<path fill="#30364D" d="M77.7,143.8c-2.3-4-4.2-10.8-5.5-19.1H57.9C63.2,134.8,70.1,141.7,77.7,143.8z"/>
	<path fill="#30364D" d="M96.1,55.1c0.2,4.9,0.3,9.7,0.4,14.3h21.8c-0.1-4.9-0.4-9.7-1-14.3H96.1z"/>
	<path fill="#30364D" d="M71.7,121.6c-0.7-4.5-1.2-9.3-1.7-14.3H51.2c1.4,5.2,3.2,10,5.2,14.3H71.7z"/>
	<path fill="#30364D" d="M59.3,17.3h13.3c1.3-7.2,3-13,5.1-16.6C70.7,2.5,64.4,8.5,59.3,17.3z"/>
	<path fill="#30364D" d="M70.3,34.7c0.5-5,1.1-9.9,1.8-14.3H57.6c-2.2,4.3-4.1,9.1-5.7,14.3H70.3z"/>
	<path fill="#30364D" d="M75.8,17.3h13.5C86.6,3.7,83.7,0,82.5,0C81.2,0,78.3,3.7,75.8,17.3z"/>
	<path fill="#30364D" d="M95,37.8c0.4,4.7,0.7,9.5,1,14.3h20.9c-0.7-5-1.7-9.8-2.9-14.3H95z"/>
	<path fill="#30364D" d="M87.3,0.7c2.1,3.6,3.8,9.5,5.1,16.6h13.3C100.4,8.2,94,2.5,87.3,0.7z"/>
	<path fill="#30364D" d="M95,107.3c-0.4,5-1,9.8-1.7,14.3h15.3c2-4.3,3.8-9.1,5.2-14.3H95z"/>
	<path fill="#30364D" d="M69.8,104.2c-0.4-4.7-0.7-9.6-0.9-14.3H47.8c0.6,5,1.5,9.8,2.6,14.3H69.8z"/>
	<path fill="#30364D" d="M147.7,55.1c1,4.6,1.5,9.4,1.7,14.3h16.1c-0.2-4.9-1-9.7-2.2-14.4c-0.1,0-0.3,0.1-0.4,0.1H147.7z"/>
	<path fill="#30364D" d="M18,52.1c1.2-5,2.9-9.8,5-14.3H9.6C6.9,42.3,4.7,47,3.1,52.1H18z"/>
	<path fill="#30364D" d="M94.7,34.7h18.3c-1.5-5-3.4-9.7-5.5-13.9c-0.1-0.1-0.1-0.3-0.2-0.4H92.9C93.6,24.8,94.2,29.6,94.7,34.7z"/>
	<path fill="#30364D" d="M17.3,55.1H2.2c-1.2,4.6-2,9.4-2.2,14.3h15.5C15.8,64.5,16.3,59.8,17.3,55.1z"/>
	<path fill="#30364D" d="M147.6,89.9c-1.1,5-2.6,9.8-4.5,14.3h14.3c0,0,0,0,0,0c2.4-4.5,4.4-9.3,5.7-14.3H147.6z"/>
	<path fill="#30364D" d="M141.7,107.3c-2.4,5.1-5.4,9.9-8.7,14.3h11.2c0,0,0.1,0,0.1,0c4.4-4.3,8.2-9.1,11.3-14.3H141.7z"/>
	<path fill="#30364D" d="M147,52.1h15.4c-1.6-5-3.8-9.8-6.4-14.3c-0.1,0-0.2,0-0.2,0H142C144.1,42.3,145.8,47.1,147,52.1z"/>
	<path fill="#30364D" d="M93.4,69.4c0-4.9-0.1-9.7-0.3-14.3H71.9c-0.2,4.6-0.3,9.4-0.3,14.3H93.4z"/>
	<path fill="#30364D" d="M93.2,86.8c0.2-4.7,0.2-9.4,0.2-14.3H71.6c0,4.9,0.1,9.6,0.2,14.3H93.2z"/>
	<path fill="#30364D" d="M92.2,104.2c0.4-4.6,0.7-9.4,0.9-14.3H71.9c0.2,4.9,0.5,9.7,0.9,14.3H92.2z"/>
	<path fill="#30364D" d="M91.7,34.7c-0.5-5.1-1.1-9.9-1.9-14.3H75.2c-0.7,4.4-1.4,9.2-1.9,14.3H91.7z"/>
	<path fill="#30364D" d="M47.4,86.8h21.4c-0.2-5-0.3-9.8-0.3-14.3H46.7C46.7,77.4,46.9,82.2,47.4,86.8z"/>
	<path fill="#30364D" d="M92.9,52.1c-0.2-5-0.6-9.8-1-14.3H73c-0.4,4.5-0.7,9.3-1,14.3H92.9z"/>
	<path fill="#30364D" d="M120,52.1h23.8c-1.3-5-3-9.8-5.2-14.3h-21.5C118.4,42.3,119.3,47.1,120,52.1z"/>
	<path fill="#30364D" d="M45,52.1c0.7-5,1.7-9.8,2.9-14.3H26.4c-2.2,4.5-3.9,9.3-5.2,14.3H45z"/>
	<path fill="#30364D" d="M21.9,104.2c-1.9-4.5-3.4-9.3-4.5-14.3h-15c1.4,5,3.3,9.8,5.7,14.3H21.9z"/>
	<path fill="#30364D" d="M48.8,34.7c1.5-5.2,3.4-10,5.5-14.3H38.1c-3.9,4.3-7.3,9.1-10.1,14.3H48.8z"/>
	<path fill="#30364D" d="M16.8,86.8c-0.8-4.6-1.2-9.4-1.3-14.3H0c0,4.9,0.6,9.7,1.6,14.3H16.8z"/>
	<path fill="#30364D" d="M27.5,17.3h9.3c6.7-7.1,14.7-12.6,23.5-16.1C47.9,4.3,36.8,9.9,27.5,17.3z"/>
	<path fill="#30364D" d="M103.6,0.8c9.3,3.5,17.6,9.2,24.6,16.5h9.8C128.3,9.5,116.6,3.8,103.6,0.8z"/>
	<path fill="#30364D" d="M68.9,1.7C58.5,4.2,49,9.7,41.1,17.3h14.8C59.6,10.5,64,5.2,68.9,1.7z"/>
	<path fill="#30364D" d="M139.8,20.4H131c3.6,4.3,6.8,9.1,9.5,14.3H154c-3.6-5.5-8-10.5-13-14.9C140.7,20.1,140.3,20.4,139.8,20.4z"
		/>
	<path fill="#30364D" d="M24.5,34.7c2.7-5.2,5.9-10,9.5-14.3h-8.8c-0.4,0-0.7-0.1-1-0.4c-4.9,4.4-9.2,9.3-12.7,14.7H24.5z"/>
	<path fill="#30364D" d="M149.4,72.5c0,4.9-0.5,9.7-1.3,14.3h15.7c1-4.6,1.6-9.4,1.6-14.3H149.4z"/>
	<path fill="#30364D" d="M34.5,124.7h-10c9.8,8.7,22,15.1,35.7,18.6C50.4,139.3,41.7,132.9,34.5,124.7z"/>
	<path fill="#30364D" d="M32,121.6c-3.4-4.4-6.3-9.1-8.7-14.3H9.9c3.1,5.2,7,10,11.3,14.3H32z"/>
	<path fill="#30364D" d="M130.5,124.7c-7.4,8.5-16.5,15.1-26.8,19c14.3-3.3,27.1-10,37.3-19H130.5z"/>
	<path fill="#30364D" d="M121.4,72.5c0,4.9-0.3,9.7-0.7,14.3H145c0.8-4.6,1.3-9.4,1.3-14.3H121.4z"/>
	<path fill="#30364D" d="M53.1,121.6c-2-4.4-3.7-9.1-5.1-14.3H26.7c2.6,5.2,5.7,10,9.3,14.3H53.1z"/>
	<path fill="#30364D" d="M109.2,17.3h14.7c-7.8-7.5-17.2-13-27.6-15.6C101.1,5.2,105.4,10.4,109.2,17.3z"/>
	<path fill="#30364D" d="M89.7,124.7H75.3c2.7,15.6,5.9,19.8,7.2,19.8C83.8,144.4,87,140.3,89.7,124.7z"/>
	<path fill="#30364D" d="M68.9,142.8c-5.4-3.9-10.3-10.2-14.3-18.1H38.7C47,133.6,57.4,139.9,68.9,142.8z"/>
	<path fill="#30364D" d="M44.3,86.8c-0.5-4.6-0.7-9.4-0.7-14.3H18.6c0,4.9,0.5,9.7,1.3,14.3H44.3z"/>
	<path fill="#30364D" d="M18.7,69.4h24.9c0.1-4.9,0.4-9.7,1-14.3H20.5C19.5,59.7,18.9,64.5,18.7,69.4z"/>
	<path fill="#30364D" d="M47.3,104.2c-1.1-4.5-2-9.3-2.6-14.3H20.6c1.1,5,2.7,9.8,4.7,14.3H47.3z"/>
	<path fill="#30364D" d="M68.5,69.4c0-4.6,0.1-9.4,0.4-14.3H47.7c-0.6,4.6-0.9,9.4-1,14.3H68.5z"/>
	<path fill="#30364D" d="M120.4,55.1c0.6,4.7,0.9,9.4,1,14.3h24.9c-0.2-4.9-0.8-9.7-1.8-14.3H120.4z"/>
	<path fill="#30364D" d="M110.8,20.4c2.1,4.4,4,9.2,5.5,14.3H137c-2.8-5.2-6.3-10-10.1-14.3H110.8z"/>
	<path fill="#30364D" d="M120.3,89.9c-0.6,5-1.5,9.8-2.6,14.3h22c2-4.5,3.6-9.3,4.7-14.3H120.3z"/>
	<path fill="#30364D" d="M116.9,107.3c-1.4,5.1-3.1,9.9-5.1,14.3H129c3.6-4.3,6.7-9.1,9.3-14.3H116.9z"/>
	<path fill="#30364D" d="M126.3,124.7h-15.9c-4,7.9-8.8,14.2-14.3,18.1C107.6,139.9,118,133.6,126.3,124.7z"/>
</g>
</svg>
