<?xml version="1.0" encoding="utf-8"?>
<!-- Generator: Adobe Illustrator 18.1.1, SVG Export Plug-In . SVG Version: 6.00 Build 0)  -->
<svg version="1.1" id="Layer_1" xmlns="http://www.w3.org/2000/svg" xmlns:xlink="http://www.w3.org/1999/xlink" x="0px" y="0px"
	 viewBox="0 0 360 78.7" enable-background="new 0 0 360 78.7" xml:space="preserve">
<line fill="#FFFFFF" stroke="#FFFFFF" stroke-width="2.7952" x1="0" y1="33.7" x2="360" y2="33.7"/>
<g>
	<path fill="#FFFFFF" d="M3.2,78.1C3.5,78,3.5,78,3.5,77.7v-6.8c0-0.3-0.1-0.4-0.4-0.5v-0.2h2v0.2c-0.3,0.1-0.4,0.2-0.4,0.5v6.8
		c0,0.3,0.1,0.4,0.4,0.4v0.2h-2V78.1z"/>
	<path fill="#FFFFFF" d="M14.3,72.3c0-0.3-0.1-0.4-0.4-0.4v-0.2h1.6v0.2c-0.3,0.1-0.4,0.2-0.4,0.4v5.4c0,0.3,0.1,0.4,0.4,0.4v0.2h-2
		v-0.2c0.2-0.1,0.3-0.1,0.3-0.3c0-0.1,0-0.2-0.1-0.2l-4.3-4.4v4.5c0,0.3,0.1,0.4,0.4,0.4v0.2H8.1v-0.2C8.4,78,8.5,78,8.5,77.7v-5.4
		c0-0.3-0.1-0.4-0.4-0.4v-0.2h2.4v0.2c-0.2,0.1-0.3,0.1-0.3,0.3c0,0.1,0,0.2,0.1,0.2l3.9,4V72.3z"/>
	<path fill="#FFFFFF" d="M19,76.1c0,0.1,0,0.2,0,0.2c0,0.2,1.1,1.1,2.6,1.1c1.4,0,2.2-0.5,2.2-1.2c0-0.7-0.7-0.8-2.2-0.8
		c-2.1-0.1-3.1-0.5-3.1-1.8c0-1.2,1.2-2.1,3.2-2.1c1.5,0,2.3,0.6,2.6,0.6c0.1,0,0.2-0.1,0.3-0.2l0.2,0.1l-0.8,1.6l-0.2-0.1
		c0,0,0-0.1,0-0.1c0-0.4-1-0.9-2.2-0.9c-1.2,0-2,0.5-2,1c0,0.8,1,0.7,2.6,0.8c1.8,0.1,2.7,0.6,2.7,1.8c0,1.3-1.4,2.3-3.4,2.3
		c-1.9,0-3-1-3.1-1c-0.1,0-0.1,0-0.2,0.1l-0.2-0.1l1-1.5L19,76.1z"/>
	<path fill="#FFFFFF" d="M27.8,72.3c0-0.3,0-0.4-0.4-0.4v-0.2h1.9v0.2C29,71.9,29,72,29,72.3v3.5c0,1.2,0.6,1.7,2,1.7
		c1.4,0,2-0.5,2-1.7v-3.5c0-0.3-0.1-0.4-0.4-0.4v-0.2h1.9v0.2c-0.3,0.1-0.4,0.2-0.4,0.4v3.5c0,1.8-0.9,2.6-3.2,2.6
		c-2.3,0-3.2-0.8-3.2-2.6V72.3z"/>
	<path fill="#FFFFFF" d="M43.9,73.6c0,0.9-0.6,1.5-1.6,1.8l1.4,2.2c0.2,0.4,0.4,0.6,0.6,0.6v0.2h-1.9v-0.2h0c0.1,0,0.2-0.1,0.2-0.1
		c0,0,0-0.1-0.1-0.1l-1.6-2.4h-2.2v2.2c0,0.3,0.1,0.4,0.4,0.4v0.2h-1.9v-0.2c0.3-0.1,0.4-0.2,0.4-0.4v-5.4c0-0.3-0.1-0.4-0.4-0.4
		v-0.2h3.8C43,71.7,43.9,72.4,43.9,73.6z M38.9,72.7v1.7h2.6c0.9,0,1.3-0.3,1.3-0.9c0-0.6-0.4-0.9-1.3-0.9H38.9z"/>
	<path fill="#FFFFFF" d="M48.6,72.1c0-0.1-0.1-0.2-0.2-0.3v-0.2h2.2v0.2c-0.1,0.1-0.2,0.2-0.2,0.3c0,0.1,0.1,0.2,0.1,0.4l2.3,4.9
		c0.2,0.4,0.4,0.6,0.7,0.7v0.2h-2v-0.2c0.1-0.1,0.2-0.1,0.2-0.2c0-0.1-0.1-0.3-0.1-0.4l-0.4-0.9h-3.4l-0.4,0.9
		c-0.1,0.1-0.1,0.3-0.1,0.4c0,0.1,0,0.2,0.2,0.2v0.2h-1.8v-0.2c0.4-0.1,0.5-0.3,0.6-0.6l2.2-5C48.5,72.4,48.6,72.2,48.6,72.1z
		 M50.7,75.6l-1.3-2.8l-1.2,2.8H50.7z"/>
	<path fill="#FFFFFF" d="M61.5,72.3c0-0.3-0.1-0.4-0.4-0.4v-0.2h1.6v0.2c-0.3,0.1-0.4,0.2-0.4,0.4v5.4c0,0.3,0.1,0.4,0.4,0.4v0.2h-2
		v-0.2c0.2-0.1,0.3-0.1,0.3-0.3c0-0.1,0-0.2-0.1-0.2l-4.3-4.4v4.5c0,0.3,0.1,0.4,0.4,0.4v0.2h-1.6v-0.2c0.3-0.1,0.4-0.2,0.4-0.4
		v-5.4c0-0.3-0.1-0.4-0.4-0.4v-0.2h2.4v0.2c-0.2,0.1-0.3,0.1-0.3,0.3c0,0.1,0,0.2,0.1,0.2l3.9,4V72.3z"/>
	<path fill="#FFFFFF" d="M71.2,73.6c0,0,0-0.1,0-0.1c0-0.4-1.2-1-2.3-1c-1.7,0-2.8,1-2.8,2.5c0,1.5,1.1,2.5,2.8,2.5
		c1.4,0,2.4-0.9,2.4-1.1c0,0,0-0.1-0.1-0.2l0.2-0.1l1.1,1.4l-0.1,0.1c-0.1-0.1-0.2-0.1-0.3-0.1c-0.2,0-1.2,1.1-3.2,1.1
		c-2.4,0-3.9-1.5-3.9-3.5c0-1.9,1.6-3.5,3.9-3.5c1.7,0,2.8,0.8,3.1,0.8c0,0,0.1-0.1,0.2-0.2l0.1,0.1l-0.9,1.5L71.2,73.6z"/>
	<path fill="#FFFFFF" d="M74.2,78.1c0.3-0.1,0.4-0.2,0.4-0.4v-5.4c0-0.3-0.1-0.4-0.4-0.4v-0.2h5.4c0.3,0,0.4-0.1,0.4-0.4h0.2V73H80
		c-0.1-0.3-0.2-0.4-0.4-0.4h-3.8v1.8h2.4c0.3,0,0.4-0.1,0.4-0.4h0.2v1.7h-0.2c-0.1-0.3-0.2-0.4-0.4-0.4h-2.4v1.9h4.1
		c0.3,0,0.4-0.1,0.4-0.4h0.2v1.7h-0.2c-0.1-0.3-0.2-0.4-0.4-0.4h-5.7V78.1z"/>
	<path fill="#FFFFFF" d="M86.9,78.1c0.4-0.1,0.5-0.3,0.6-0.6l2.9-6.4c0.1-0.2,0.1-0.3,0.1-0.4c0-0.1-0.1-0.2-0.2-0.3v-0.2h2.2v0.2
		c-0.1,0.1-0.2,0.2-0.2,0.3c0,0.1,0,0.2,0.1,0.4l3,6.3c0.2,0.4,0.4,0.6,0.7,0.7v0.2h-2.1v-0.2c0.1-0.1,0.2-0.1,0.2-0.2
		c0-0.1-0.1-0.2-0.1-0.4l-0.6-1.3h-4.2l-0.6,1.3c-0.1,0.2-0.2,0.3-0.2,0.4c0,0.1,0.1,0.2,0.2,0.2v0.2h-1.9V78.1z M93,75.1l-1.6-3.5
		l-1.6,3.5H93z"/>
	<path fill="#FFFFFF" d="M103.7,73.6c0,0,0-0.1,0-0.1c0-0.4-1.1-1-2.3-1c-1.7,0-2.7,1-2.7,2.4c0,1.5,1.1,2.4,2.7,2.4
		c0.8,0,1.5-0.3,2.3-0.7v-0.8h-1.7c-0.3,0-0.4,0.1-0.4,0.4h-0.2v-1.7h0.2c0.1,0.3,0.2,0.4,0.4,0.4h3.1v0.2c-0.3,0.1-0.4,0.2-0.4,0.4
		v1.2l0.3,0.1v0.2c-1,0.9-2.3,1.4-3.6,1.4c-2.4,0-3.9-1.5-3.9-3.5c0-1.9,1.5-3.5,3.8-3.5c1.7,0,2.8,0.8,3.1,0.8c0,0,0.1-0.1,0.2-0.2
		l0.2,0.1l-0.9,1.5L103.7,73.6z"/>
	<path fill="#FFFFFF" d="M107.2,78.1c0.3-0.1,0.4-0.2,0.4-0.4v-5.4c0-0.3-0.1-0.4-0.4-0.4v-0.2h5.4c0.3,0,0.4-0.1,0.4-0.4h0.2V73
		H113c-0.1-0.3-0.2-0.4-0.4-0.4h-3.8v1.8h2.4c0.3,0,0.4-0.1,0.4-0.4h0.2v1.7h-0.2c-0.1-0.3-0.2-0.4-0.4-0.4h-2.4v1.9h4.1
		c0.3,0,0.4-0.1,0.4-0.4h0.2v1.7h-0.2c-0.1-0.3-0.2-0.4-0.4-0.4h-5.7V78.1z"/>
	<path fill="#FFFFFF" d="M122.1,72.3c0-0.3-0.1-0.4-0.4-0.4v-0.2h1.6v0.2c-0.3,0.1-0.4,0.2-0.4,0.4v5.4c0,0.3,0.1,0.4,0.4,0.4v0.2
		h-2v-0.2c0.2-0.1,0.3-0.1,0.3-0.3c0-0.1,0-0.2-0.1-0.2l-4.3-4.4v4.5c0,0.3,0.1,0.4,0.4,0.4v0.2H116v-0.2c0.3-0.1,0.4-0.2,0.4-0.4
		v-5.4c0-0.3-0.1-0.4-0.4-0.4v-0.2h2.4v0.2c-0.2,0.1-0.3,0.1-0.3,0.3c0,0.1,0,0.2,0.1,0.2l3.9,4V72.3z"/>
	<path fill="#FFFFFF" d="M125.9,73h-0.2v-1.7h0.2c0.1,0.3,0.2,0.4,0.4,0.4h5.3c0.3,0,0.4-0.1,0.4-0.4h0.2V73h-0.2
		c-0.1-0.3-0.2-0.4-0.4-0.4h-2.1v5c0,0.3,0.1,0.4,0.4,0.4v0.2H128v-0.2c0.3-0.1,0.4-0.2,0.4-0.4v-5h-2C126.1,72.7,126,72.8,125.9,73
		z"/>
	<path fill="#FFFFFF" d="M135.3,76.1c0,0.1,0,0.2,0,0.2c0,0.2,1.1,1.1,2.6,1.1c1.4,0,2.2-0.5,2.2-1.2c0-0.7-0.7-0.8-2.2-0.8
		c-2.1-0.1-3.1-0.5-3.1-1.8c0-1.2,1.2-2.1,3.2-2.1c1.5,0,2.3,0.6,2.6,0.6c0.1,0,0.2-0.1,0.3-0.2L141,72l-0.8,1.6l-0.2-0.1
		c0,0,0-0.1,0-0.1c0-0.4-1-0.9-2.2-0.9c-1.2,0-2,0.5-2,1c0,0.8,1,0.7,2.6,0.8c1.8,0.1,2.7,0.6,2.7,1.8c0,1.3-1.4,2.3-3.4,2.3
		c-1.9,0-3-1-3.1-1c-0.1,0-0.1,0-0.2,0.1l-0.2-0.1l1-1.5L135.3,76.1z"/>
	<path fill="#FFFFFF" d="M157,74.9c0,0.6-0.2,1.1-0.6,1.5c-0.4,0.4-0.9,0.6-1.5,0.6c-0.6,0-1.1-0.2-1.5-0.6
		c-0.4-0.4-0.6-0.9-0.6-1.5c0-0.6,0.2-1.1,0.6-1.5c0.4-0.4,0.9-0.6,1.5-0.6c0.6,0,1.1,0.2,1.5,0.6C156.8,73.8,157,74.3,157,74.9z"/>
	<path fill="#FFFFFF" d="M168.9,78.1c0.3-0.1,0.4-0.2,0.4-0.4v-6.8c0-0.3-0.1-0.4-0.4-0.5v-0.2h5c1.9,0,2.9,0.8,2.9,2.1
		c0,0.7-0.4,1.3-1.1,1.7c0.9,0.4,1.4,1.1,1.4,2c0,1.5-1.2,2.4-3.3,2.4h-4.8V78.1z M170.5,71.3v2.1h3.3c1.1,0,1.7-0.3,1.7-1
		c0-0.8-0.6-1-1.9-1H170.5z M170.5,74.6v2.6h2.8c1.7,0,2.5-0.2,2.5-1.3c0-1-0.8-1.3-2.4-1.3H170.5z"/>
	<path fill="#FFFFFF" d="M186.2,73.6c0,0.9-0.6,1.5-1.6,1.8l1.4,2.2c0.2,0.4,0.4,0.6,0.6,0.6v0.2h-1.9v-0.2h0c0.1,0,0.2-0.1,0.2-0.1
		c0,0,0-0.1-0.1-0.1l-1.6-2.4h-2.2v2.2c0,0.3,0.1,0.4,0.4,0.4v0.2h-1.9v-0.2c0.3-0.1,0.4-0.2,0.4-0.4v-5.4c0-0.3-0.1-0.4-0.4-0.4
		v-0.2h3.8C185.2,71.7,186.2,72.4,186.2,73.6z M181.2,72.7v1.7h2.6c0.9,0,1.3-0.3,1.3-0.9c0-0.6-0.4-0.9-1.3-0.9H181.2z"/>
	<path fill="#FFFFFF" d="M188.1,75c0-1.9,1.5-3.5,3.9-3.5c2.3,0,3.8,1.5,3.8,3.5c0,1.9-1.6,3.5-3.8,3.5S188.1,76.9,188.1,75z
		 M192,77.5c1.6,0,2.6-1.1,2.6-2.6c0-1.5-1-2.5-2.6-2.5c-1.6,0-2.6,1-2.6,2.5C189.4,76.5,190.4,77.5,192,77.5z"/>
	<path fill="#FFFFFF" d="M202.6,72.4c0.2-0.1,0.3-0.2,0.3-0.3c0-0.1,0-0.2-0.2-0.2v-0.2h2.2v0.2c-0.5,0.2-0.9,0.5-1.3,0.8l-1.8,1.3
		l2.7,3.4c0.3,0.4,0.5,0.6,0.8,0.8v0.2h-2v-0.2c0.1,0,0.2-0.1,0.2-0.2c0-0.2-0.1-0.3-0.3-0.5l-2.3-2.9l-1.4,1.1v2
		c0,0.3,0.1,0.4,0.4,0.4v0.2H198v-0.2c0.3-0.1,0.4-0.2,0.4-0.4v-5.4c0-0.3-0.1-0.4-0.4-0.4v-0.2h1.9v0.2c-0.3,0.1-0.4,0.2-0.4,0.4
		v2.3L202.6,72.4z"/>
	<path fill="#FFFFFF" d="M207.2,78.1c0.3-0.1,0.4-0.2,0.4-0.4v-5.4c0-0.3-0.1-0.4-0.4-0.4v-0.2h5.4c0.3,0,0.4-0.1,0.4-0.4h0.2V73
		H213c-0.1-0.3-0.2-0.4-0.4-0.4h-3.8v1.8h2.4c0.3,0,0.4-0.1,0.4-0.4h0.2v1.7h-0.2c-0.1-0.3-0.2-0.4-0.4-0.4h-2.4v1.9h4.1
		c0.3,0,0.4-0.1,0.4-0.4h0.2v1.7h-0.2c-0.1-0.3-0.2-0.4-0.4-0.4h-5.7V78.1z"/>
	<path fill="#FFFFFF" d="M222.6,73.6c0,0.9-0.6,1.5-1.6,1.8l1.4,2.2c0.2,0.4,0.4,0.6,0.6,0.6v0.2h-1.9v-0.2h0c0.1,0,0.2-0.1,0.2-0.1
		c0,0,0-0.1-0.1-0.1l-1.6-2.4h-2.2v2.2c0,0.3,0.1,0.4,0.4,0.4v0.2H216v-0.2c0.3-0.1,0.4-0.2,0.4-0.4v-5.4c0-0.3-0.1-0.4-0.4-0.4
		v-0.2h3.8C221.6,71.7,222.6,72.4,222.6,73.6z M217.5,72.7v1.7h2.6c0.9,0,1.3-0.3,1.3-0.9c0-0.6-0.4-0.9-1.3-0.9H217.5z"/>
	<path fill="#FFFFFF" d="M225.8,76.1c0,0.1,0,0.2,0,0.2c0,0.2,1.1,1.1,2.6,1.1c1.4,0,2.2-0.5,2.2-1.2c0-0.7-0.7-0.8-2.2-0.8
		c-2.1-0.1-3.1-0.5-3.1-1.8c0-1.2,1.2-2.1,3.2-2.1c1.5,0,2.3,0.6,2.6,0.6c0.1,0,0.2-0.1,0.3-0.2l0.2,0.1l-0.8,1.6l-0.2-0.1
		c0,0,0-0.1,0-0.1c0-0.4-1-0.9-2.2-0.9c-1.2,0-2,0.5-2,1c0,0.8,1,0.7,2.6,0.8c1.8,0.1,2.7,0.6,2.7,1.8c0,1.3-1.4,2.3-3.4,2.3
		c-1.9,0-3-1-3.1-1c-0.1,0-0.1,0-0.2,0.1l-0.2-0.1l1-1.5L225.8,76.1z"/>
	<path fill="#FFFFFF" d="M247.4,74.9c0,0.6-0.2,1.1-0.6,1.5c-0.4,0.4-0.9,0.6-1.5,0.6c-0.6,0-1.1-0.2-1.5-0.6
		c-0.4-0.4-0.6-0.9-0.6-1.5c0-0.6,0.2-1.1,0.6-1.5c0.4-0.4,0.9-0.6,1.5-0.6c0.6,0,1.1,0.2,1.5,0.6C247.2,73.8,247.4,74.3,247.4,74.9
		z"/>
	<path fill="#FFFFFF" d="M266.2,72.4c0-0.2-0.2-0.3-0.6-0.5c-0.8-0.4-1.5-0.6-2.3-0.6c-2.1,0-3.4,1.3-3.4,3.1c0,1.8,1.4,3.1,3.4,3.1
		c1.7,0,2.9-1.1,2.9-1.4c0-0.1,0-0.2-0.1-0.3l0.1-0.1l1.3,1.6l-0.2,0.1c-0.1-0.1-0.2-0.1-0.3-0.1c-0.1,0-0.3,0.2-0.7,0.5
		c-1,0.6-2,0.9-3.1,0.9c-2.8,0-4.7-1.8-4.7-4.2c0-2.3,1.8-4.2,4.6-4.2c2,0,3.3,0.9,3.6,0.9c0.1,0,0.2-0.1,0.3-0.2l0.2,0.1l-1,1.8
		l-0.2-0.1C266.2,72.5,266.2,72.4,266.2,72.4z"/>
	<path fill="#FFFFFF" d="M268.7,75c0-1.9,1.5-3.5,3.9-3.5c2.3,0,3.8,1.5,3.8,3.5c0,1.9-1.6,3.5-3.8,3.5
		C270.3,78.4,268.7,76.9,268.7,75z M272.6,77.5c1.6,0,2.6-1.1,2.6-2.6c0-1.5-1-2.5-2.6-2.5c-1.6,0-2.6,1-2.6,2.5
		C270,76.5,271,77.5,272.6,77.5z"/>
	<path fill="#FFFFFF" d="M284.7,72.3c0-0.3-0.1-0.4-0.4-0.4v-0.2h1.6v0.2c-0.3,0.1-0.4,0.2-0.4,0.4v5.4c0,0.3,0.1,0.4,0.4,0.4v0.2
		h-2v-0.2c0.2-0.1,0.3-0.1,0.3-0.3c0-0.1,0-0.2-0.1-0.2l-4.3-4.4v4.5c0,0.3,0.1,0.4,0.4,0.4v0.2h-1.6v-0.2c0.3-0.1,0.4-0.2,0.4-0.4
		v-5.4c0-0.3-0.1-0.4-0.4-0.4v-0.2h2.4v0.2c-0.2,0.1-0.3,0.1-0.3,0.3c0,0.1,0,0.2,0.1,0.2l3.9,4V72.3z"/>
	<path fill="#FFFFFF" d="M289.4,76.1c0,0.1,0,0.2,0,0.2c0,0.2,1.1,1.1,2.6,1.1c1.4,0,2.2-0.5,2.2-1.2c0-0.7-0.7-0.8-2.2-0.8
		c-2.1-0.1-3.1-0.5-3.1-1.8c0-1.2,1.2-2.1,3.2-2.1c1.5,0,2.3,0.6,2.6,0.6c0.1,0,0.2-0.1,0.3-0.2l0.2,0.1l-0.8,1.6l-0.2-0.1
		c0,0,0-0.1,0-0.1c0-0.4-1-0.9-2.2-0.9c-1.2,0-2,0.5-2,1c0,0.8,1,0.7,2.6,0.8c1.8,0.1,2.7,0.6,2.7,1.8c0,1.3-1.4,2.3-3.4,2.3
		c-1.9,0-3-1-3.1-1c-0.1,0-0.1,0-0.2,0.1l-0.2-0.1l1-1.5L289.4,76.1z"/>
	<path fill="#FFFFFF" d="M298.2,72.3c0-0.3,0-0.4-0.4-0.4v-0.2h1.9v0.2c-0.3,0.1-0.4,0.2-0.4,0.4v3.5c0,1.2,0.6,1.7,2,1.7
		c1.4,0,2-0.5,2-1.7v-3.5c0-0.3-0.1-0.4-0.4-0.4v-0.2h1.9v0.2c-0.3,0.1-0.4,0.2-0.4,0.4v3.5c0,1.8-0.9,2.6-3.2,2.6
		c-2.3,0-3.2-0.8-3.2-2.6V72.3z"/>
	<path fill="#FFFFFF" d="M313.6,77.3c0.3,0,0.4-0.1,0.4-0.4h0.2v1.7h-0.2c-0.1-0.3-0.2-0.4-0.4-0.4h-5.8v-0.2
		c0.3-0.1,0.4-0.2,0.4-0.4v-5.4c0-0.3-0.1-0.4-0.4-0.4v-0.2h1.9v0.2c-0.3,0.1-0.4,0.2-0.4,0.4v5H313.6z"/>
	<path fill="#FFFFFF" d="M314.9,73h-0.2v-1.7h0.2c0.1,0.3,0.2,0.4,0.4,0.4h5.3c0.3,0,0.4-0.1,0.4-0.4h0.2V73h-0.2
		c-0.1-0.3-0.2-0.4-0.4-0.4h-2.1v5c0,0.3,0.1,0.4,0.4,0.4v0.2H317v-0.2c0.3-0.1,0.4-0.2,0.4-0.4v-5h-2C315,72.7,315,72.8,314.9,73z"
		/>
	<path fill="#FFFFFF" d="M325.2,72.1c0-0.1-0.1-0.2-0.2-0.3v-0.2h2.2v0.2c-0.1,0.1-0.2,0.2-0.2,0.3c0,0.1,0.1,0.2,0.1,0.4l2.3,4.9
		c0.2,0.4,0.4,0.6,0.7,0.7v0.2h-2v-0.2c0.1-0.1,0.2-0.1,0.2-0.2c0-0.1-0.1-0.3-0.1-0.4l-0.4-0.9h-3.4l-0.4,0.9
		c-0.1,0.1-0.1,0.3-0.1,0.4c0,0.1,0,0.2,0.2,0.2v0.2h-1.8v-0.2c0.4-0.1,0.5-0.3,0.6-0.6l2.2-5C325.1,72.4,325.2,72.2,325.2,72.1z
		 M327.3,75.6l-1.3-2.8l-1.2,2.8H327.3z"/>
	<path fill="#FFFFFF" d="M338.1,72.3c0-0.3-0.1-0.4-0.4-0.4v-0.2h1.6v0.2c-0.3,0.1-0.4,0.2-0.4,0.4v5.4c0,0.3,0.1,0.4,0.4,0.4v0.2
		h-2v-0.2c0.2-0.1,0.3-0.1,0.3-0.3c0-0.1,0-0.2-0.1-0.2l-4.3-4.4v4.5c0,0.3,0.1,0.4,0.4,0.4v0.2H332v-0.2c0.3-0.1,0.4-0.2,0.4-0.4
		v-5.4c0-0.3-0.1-0.4-0.4-0.4v-0.2h2.4v0.2c-0.2,0.1-0.3,0.1-0.3,0.3c0,0.1,0,0.2,0.1,0.2l3.9,4V72.3z"/>
	<path fill="#FFFFFF" d="M341.9,73h-0.2v-1.7h0.2c0.1,0.3,0.2,0.4,0.4,0.4h5.3c0.3,0,0.4-0.1,0.4-0.4h0.2V73h-0.2
		c-0.1-0.3-0.2-0.4-0.4-0.4h-2.1v5c0,0.3,0.1,0.4,0.4,0.4v0.2H344v-0.2c0.3-0.1,0.4-0.2,0.4-0.4v-5h-2C342.1,72.7,342,72.8,341.9,73
		z"/>
	<path fill="#FFFFFF" d="M351.3,76.1c0,0.1,0,0.2,0,0.2c0,0.2,1.1,1.1,2.6,1.1c1.4,0,2.2-0.5,2.2-1.2c0-0.7-0.7-0.8-2.2-0.8
		c-2.1-0.1-3.1-0.5-3.1-1.8c0-1.2,1.2-2.1,3.2-2.1c1.5,0,2.3,0.6,2.6,0.6c0.1,0,0.2-0.1,0.3-0.2L357,72l-0.8,1.6l-0.2-0.1
		c0,0,0-0.1,0-0.1c0-0.4-1-0.9-2.2-0.9c-1.2,0-2,0.5-2,1c0,0.8,1,0.7,2.6,0.8c1.8,0.1,2.7,0.6,2.7,1.8c0,1.3-1.4,2.3-3.4,2.3
		c-1.9,0-3-1-3.1-1c-0.1,0-0.1,0-0.2,0.1l-0.2-0.1l1-1.5L351.3,76.1z"/>
</g>
<g>
	<path fill="#FFFFFF" d="M38.6,7.3c-0.9,3.4-3.7,5.9-7.5,6.7c2.6,6.8,3.3,10.7,4.6,10.7h0.2l-0.2,0.6H29l0.2-0.6h0.2
		c0.5,0,0.8-0.2,0.9-0.6c0-0.1,0-0.2-0.1-0.5l-3.3-9.3h-8.7l-2.4,8.9c-0.2,0.9-0.1,1.2,0.8,1.4l-0.2,0.6h-6.2l0.2-0.6
		c1-0.2,1.2-0.5,1.5-1.4L17.4,2c0.2-0.9,0.1-1.2-0.7-1.4L16.8,0h13.4C37,0,39.8,2.8,38.6,7.3z M21,3.5l-2,7.3h7.4
		c4.9,0,7.7-1.1,8.4-3.7c0.7-2.7-1.6-3.6-6.7-3.6H21z"/>
	<path fill="#FFFFFF" d="M43.3,14.8C44.9,8.8,51,4,58.2,4s10.7,4.8,9.1,10.8c-1.6,6-7.8,10.8-14.9,10.8
		C45.3,25.6,41.7,20.9,43.3,14.8z M53.2,22.8c4.8,0,9-3.3,10.2-8c1.2-4.7-1-7.9-6-7.9c-4.9,0-9,3.3-10.2,7.9
		C46,19.4,48.2,22.8,53.2,22.8z"/>
	<path fill="#FFFFFF" d="M95.4,6.5c0.2-0.9,0.1-1.2-0.7-1.4l0.2-0.6h5.1l-0.2,0.6c-1,0.2-1.2,0.5-1.5,1.4l-4.5,16.8
		c-0.2,0.9-0.1,1.2,0.7,1.4l-0.2,0.6h-6.3l0.2-0.6c0.7-0.2,1-0.4,1.2-0.9c0.1-0.2,0-0.5-0.1-0.7L79.6,9.2l-3.8,14.1
		c-0.2,0.9-0.1,1.2,0.7,1.4l-0.2,0.6h-5.1l0.2-0.6c1-0.2,1.2-0.5,1.5-1.4l4.5-16.8c0.2-0.9,0.1-1.2-0.7-1.4l0.2-0.6h7.6l-0.2,0.6
		c-0.7,0.2-1,0.4-1.2,0.9c-0.1,0.2,0,0.5,0.1,0.7L92,19.2L95.4,6.5z"/>
	<path fill="#FFFFFF" d="M114.8,5.9c0.1-0.3,0-0.6-0.4-0.8l0.2-0.6h6.7l-0.2,0.6c-0.5,0.2-0.8,0.5-0.8,0.8c-0.1,0.3,0,0.7,0.1,1.2
		l3,15.2c0.3,1.2,0.7,1.9,1.6,2.3l-0.2,0.6h-6.2l0.2-0.6c0.5-0.2,0.7-0.4,0.8-0.8c0.1-0.4,0-0.8-0.1-1.3l-0.6-2.7h-10.6l-2,2.7
		c-0.3,0.4-0.5,0.9-0.6,1.3c-0.1,0.4,0,0.6,0.4,0.8l-0.2,0.6h-5.8l0.2-0.6c1.3-0.4,1.9-1.1,2.5-2l11.1-15.5
		C114.4,6.6,114.7,6.3,114.8,5.9z M118.5,16.7l-1.8-8.6l-6.2,8.6H118.5z"/>
	<path fill="#FFFFFF" d="M149.7,22c0.9,0,1.2-0.2,1.7-1.1h0.6l-1.4,5.4H150c0-0.9-0.2-1.1-1.1-1.1h-18.2l0.2-0.6
		c1-0.2,1.2-0.5,1.5-1.4l4.5-16.8c0.2-0.9,0.1-1.2-0.7-1.4l0.2-0.6h6l-0.2,0.6c-1,0.2-1.2,0.5-1.5,1.4L136.5,22H149.7z"/>
	<path fill="#FFFFFF" d="M157.6,24.6c1-0.2,1.2-0.5,1.5-1.4l4.5-16.8c0.2-0.9,0.1-1.2-0.7-1.4l0.2-0.6H173c8.6,0,12.1,3.1,10.2,10.3
		c-1.9,7.2-7.1,10.4-15.7,10.4h-10.1L157.6,24.6z M163.1,22.1h5.7c5.5,0,9.1-2.6,10.3-7.2c1.2-4.6-1-7.2-6.5-7.2H167L163.1,22.1z"/>
	<path fill="#FFFFFF" d="M202.9,24.6c1-0.2,1.2-0.5,1.5-1.4L210.1,2c0.2-0.9,0.1-1.2-0.7-1.4l0.1-0.5h11.8c4.8,0,8.3,0.4,10.6,2.8
		c2,2.1,2.5,5.6,1.4,9.7c-1.1,4.2-3.5,7.7-6.7,9.8c-3.6,2.4-7.3,2.8-12.1,2.8h-11.8L202.9,24.6z M208.7,22h8.1
		c6.7,0,11.1-3.4,12.7-9.5c1.6-6-0.9-9.5-7.6-9.5h-8.1L208.7,22z"/>
	<path fill="#FFFFFF" d="M243.2,24.6l-0.2,0.6h-6l0.2-0.6c1-0.2,1.2-0.5,1.5-1.4l4.5-16.8c0.2-0.9,0.1-1.2-0.7-1.4l0.2-0.6h6
		l-0.2,0.6c-1,0.2-1.2,0.5-1.5,1.4l-4.5,16.8C242.2,24.1,242.3,24.4,243.2,24.6z"/>
	<path fill="#FFFFFF" d="M255.4,18.4c-0.2,0.4-0.3,0.6-0.3,0.7c-0.2,0.8,2.6,3.5,7.2,3.5c4.3,0,7.3-1.6,7.8-3.6
		c0.6-2.2-1.4-2.5-6.3-2.6c-6.5-0.2-9.4-1.4-8.3-5.5c1-3.7,5.5-6.7,11.9-6.7c4.6,0,6.8,1.9,7.7,1.9c0.2,0,0.6-0.2,1-0.5l0.5,0.2
		l-3.8,4.8l-0.5-0.2c0.1-0.1,0.2-0.3,0.2-0.4c0.3-1.2-2.3-2.7-6-2.7c-3.9,0-6.8,1.6-7.2,3.2c-0.6,2.4,2.5,2.1,7.5,2.4
		c5.6,0.4,7.9,1.8,6.9,5.7c-1.1,4.1-6.3,7.2-12.6,7.2c-5.8,0-8.4-3.1-9-3.1c-0.2,0-0.5,0.1-0.9,0.4l-0.5-0.3l4.2-4.6L255.4,18.4z"/>
	<path fill="#FFFFFF" d="M299.3,6.8c0.7-0.4,1.1-0.8,1.2-1c0.1-0.3,0-0.5-0.4-0.7l0.2-0.6h7L307,5.1c-1.6,0.7-3.1,1.5-4.6,2.4
		l-6.8,4.1l5.5,10.7c0.6,1.2,1,2,1.8,2.4l-0.2,0.6h-6.1l0.2-0.6c0.4-0.1,0.6-0.3,0.7-0.5c0.1-0.5,0-0.9-0.4-1.5l-4.7-9l-5.3,3.3
		l-1.7,6.3c-0.2,0.9-0.1,1.2,0.7,1.4l-0.2,0.6h-6l0.2-0.6c1-0.2,1.2-0.5,1.5-1.4l4.5-16.8c0.2-0.9,0.1-1.2-0.7-1.4l0.2-0.6h6
		l-0.2,0.6c-1,0.2-1.2,0.5-1.5,1.4l-1.9,7.2L299.3,6.8z"/>
	<path fill="#FFFFFF" d="M314.7,24.6l-0.2,0.6h-6l0.2-0.6c1-0.2,1.2-0.5,1.5-1.4l4.5-16.8c0.2-0.9,0.1-1.2-0.7-1.4l0.2-0.6h6
		L320,5.1c-1,0.2-1.2,0.5-1.5,1.4L314,23.2C313.8,24.1,313.9,24.4,314.7,24.6z"/>
	<path fill="#FFFFFF" d="M347.3,6.5c0.2-0.9,0.1-1.2-0.7-1.4l0.2-0.6h5.1l-0.2,0.6c-1,0.2-1.2,0.5-1.5,1.4l-4.5,16.8
		c-0.2,0.9-0.1,1.2,0.7,1.4l-0.2,0.6H340l0.2-0.6c0.7-0.2,1-0.4,1.2-0.9c0.1-0.2,0-0.5-0.1-0.7l-9.6-13.8l-3.8,14.1
		c-0.2,0.9-0.1,1.2,0.7,1.4l-0.2,0.6h-5.1l0.2-0.6c1-0.2,1.2-0.5,1.5-1.4l4.5-16.8c0.2-0.9,0.1-1.2-0.7-1.4l0.2-0.6h7.6l-0.2,0.6
		c-0.7,0.2-1,0.4-1.2,0.9c-0.1,0.2,0,0.5,0.1,0.7l8.8,12.5L347.3,6.5z"/>
</g>
<g>
	<path fill="#FFFFFF" d="M8.2,61.3c1.1-0.4,1.5-0.8,2.1-1.6l12-16.7c0.3-0.4,0.6-0.8,0.6-1.1c0.1-0.3,0-0.5-0.3-0.7l0.1-0.4h5.7
		l-0.1,0.4c-0.4,0.2-0.6,0.4-0.7,0.7c-0.1,0.3,0,0.6,0.1,1.1l3.4,16.4c0.2,1,0.6,1.6,1.3,1.9l-0.1,0.5h-5.5l0.1-0.5
		c0.4-0.2,0.6-0.4,0.7-0.6c0.1-0.3,0-0.6-0.1-1.1l-0.7-3.3h-11l-2.4,3.3c-0.3,0.4-0.6,0.8-0.7,1.1c-0.1,0.3,0,0.5,0.3,0.6L13,61.8H8
		L8.2,61.3z M26.3,53.4l-1.8-9.2l-6.7,9.2H26.3z"/>
	<path fill="#FFFFFF" d="M40.2,56.1c-0.2,0.3-0.3,0.5-0.3,0.6c-0.2,0.6,2.1,2.9,6,2.9c3.6,0,6.1-1.4,6.5-3c0.5-1.8-1.2-2.1-5.2-2.2
		c-5.4-0.2-7.8-1.2-6.9-4.6c0.8-3.1,4.6-5.6,9.9-5.6c3.8,0,5.7,1.6,6.4,1.6c0.2,0,0.5-0.2,0.8-0.4l0.4,0.2l-3.2,4l-0.4-0.2
		c0.1-0.1,0.1-0.2,0.2-0.4c0.3-1-1.9-2.3-5-2.3c-3.2,0-5.6,1.3-6,2.7c-0.5,2,2,1.8,6.3,2c4.6,0.3,6.6,1.5,5.7,4.8
		c-0.9,3.4-5.3,6-10.5,6c-4.8,0-7-2.6-7.5-2.6c-0.2,0-0.4,0.1-0.7,0.4l-0.4-0.2l3.5-3.8L40.2,56.1z"/>
	<path fill="#FFFFFF" d="M63,56.1c-0.2,0.3-0.3,0.5-0.3,0.6c-0.2,0.6,2.1,2.9,6,2.9c3.6,0,6.1-1.4,6.5-3c0.5-1.8-1.2-2.1-5.2-2.2
		c-5.4-0.2-7.8-1.2-6.9-4.6c0.8-3.1,4.6-5.6,9.9-5.6c3.8,0,5.7,1.6,6.4,1.6c0.2,0,0.5-0.2,0.8-0.4l0.4,0.2l-3.2,4l-0.4-0.2
		c0.1-0.1,0.1-0.2,0.2-0.4c0.3-1-1.9-2.3-5-2.3c-3.2,0-5.6,1.3-6,2.7c-0.5,2,2,1.8,6.3,2c4.6,0.3,6.6,1.5,5.7,4.8
		c-0.9,3.4-5.3,6-10.5,6c-4.8,0-7-2.6-7.5-2.6c-0.2,0-0.4,0.1-0.7,0.4l-0.4-0.2l3.5-3.8L63,56.1z"/>
	<path fill="#FFFFFF" d="M84.2,53.1c1.4-5,6.4-9,12.4-9s8.9,4,7.6,9c-1.4,5-6.5,9-12.4,9C85.9,62.1,82.9,58.2,84.2,53.1z M92.5,59.7
		c4,0,7.5-2.8,8.5-6.6c1-3.9-0.9-6.6-5-6.6c-4.1,0-7.5,2.7-8.5,6.6C86.5,57,88.3,59.7,92.5,59.7z"/>
	<path fill="#FFFFFF" d="M125.6,49.6c0.1-0.1,0.1-0.2,0.2-0.3c0.3-1.1-2.5-2.6-5.4-2.6c-4.4,0-7.9,2.7-8.9,6.5
		c-1,3.8,1.2,6.4,5.4,6.4c3.6,0,6.9-2.4,7-2.8c0-0.1,0-0.3,0-0.6l0.5-0.3l1.9,3.5l-0.4,0.2c-0.2-0.2-0.4-0.3-0.6-0.3
		c-0.4,0-3.8,2.8-9.2,2.8c-6.2,0-9.1-3.9-7.8-9c1.4-5,6.5-9,12.4-9c4.4,0,6.7,2,7.4,2c0.1,0,0.4-0.2,0.7-0.4l0.3,0.2l-3.4,3.9
		L125.6,49.6z"/>
	<path fill="#FFFFFF" d="M135.2,61.3l-0.1,0.5h-5l0.1-0.5c0.8-0.2,1-0.4,1.2-1.2l3.7-14c0.2-0.8,0.1-1-0.6-1.2l0.1-0.5h5l-0.1,0.5
		c-0.8,0.2-1,0.4-1.2,1.2l-3.7,14C134.4,60.9,134.5,61.1,135.2,61.3z"/>
	<path fill="#FFFFFF" d="M152,45.7c0.1-0.3,0-0.5-0.3-0.7l0.1-0.5h5.6l-0.1,0.5c-0.4,0.2-0.6,0.4-0.7,0.7c-0.1,0.3,0,0.6,0.1,1
		l2.5,12.6c0.2,1,0.6,1.6,1.3,1.9l-0.1,0.5h-5.2l0.1-0.5c0.4-0.2,0.6-0.3,0.7-0.6c0.1-0.3,0-0.7-0.1-1.1l-0.5-2.3h-8.8l-1.7,2.3
		c-0.2,0.3-0.4,0.7-0.5,1.1c-0.1,0.4,0,0.5,0.3,0.6l-0.1,0.5h-4.8l0.1-0.5c1.1-0.4,1.6-0.9,2.1-1.6l9.3-12.9
		C151.7,46.3,151.9,46,152,45.7z M155.1,54.7l-1.5-7.2l-5.2,7.2H155.1z"/>
	<path fill="#FFFFFF" d="M166.8,48.1h-0.4l1.2-4.5h0.5c0,0.8,0.2,0.9,0.9,0.9h13.8c0.8,0,1-0.2,1.4-0.9h0.5l-1.2,4.5H183
		c0-0.8-0.2-0.9-0.9-0.9h-5.4l-3.5,13c-0.2,0.8-0.1,1,0.6,1.2l-0.1,0.5h-5l0.1-0.5c0.8-0.2,1-0.4,1.2-1.2l3.5-13h-5.3
		C167.5,47.2,167.2,47.3,166.8,48.1z"/>
	<path fill="#FFFFFF" d="M186.1,61.3c0.8-0.2,1-0.4,1.2-1.2l3.7-14c0.2-0.8,0.1-1-0.6-1.2l0.1-0.5h14c0.7,0,1-0.2,1.4-1h0.5
		l-1.2,4.5h-0.5c0-0.8-0.2-0.9-0.9-0.9h-10l-1.2,4.6h6.3c0.7,0,1-0.2,1.4-1h0.5l-1.2,4.5h-0.5c0-0.8-0.2-0.9-0.9-0.9H192l-1.3,4.8
		h10.6c0.8,0,1-0.2,1.4-0.9h0.5l-1.2,4.5h-0.5c0-0.8-0.2-0.9-0.9-0.9h-14.8L186.1,61.3z"/>
	<path fill="#FFFFFF" d="M212,56.1c-0.2,0.3-0.3,0.5-0.3,0.6c-0.2,0.6,2.1,2.9,6,2.9c3.6,0,6.1-1.4,6.5-3c0.5-1.8-1.2-2.1-5.2-2.2
		c-5.4-0.2-7.8-1.2-6.9-4.6c0.8-3.1,4.6-5.6,9.9-5.6c3.8,0,5.7,1.6,6.4,1.6c0.2,0,0.5-0.2,0.8-0.4l0.4,0.2l-3.2,4l-0.4-0.2
		c0.1-0.1,0.1-0.2,0.2-0.4c0.3-1-1.9-2.3-5-2.3c-3.2,0-5.6,1.3-6,2.7c-0.5,2,2,1.8,6.3,2c4.6,0.3,6.6,1.5,5.7,4.8
		c-0.9,3.4-5.3,6-10.5,6c-4.8,0-7-2.6-7.5-2.6c-0.2,0-0.4,0.1-0.7,0.4l-0.4-0.2l3.5-3.8L212,56.1z"/>
	<path fill="#FFFFFF" d="M267.4,46.3c0.2-0.6-0.2-0.9-1.1-1.4c-1.8-1.1-3.6-1.6-5.6-1.6c-5.4,0-9.7,3.3-10.9,8c-1.3,4.8,1.4,8,6.7,8
		c4.4,0,8.4-3,8.6-3.6c0-0.2,0-0.4,0-0.7l0.4-0.3l2.2,4.1l-0.5,0.3c-0.3-0.2-0.5-0.4-0.7-0.4c-0.3,0-1,0.6-2.2,1.2
		c-3,1.6-5.8,2.3-8.7,2.3c-7.4,0-10.8-4.8-9.2-10.9c1.6-6,7.7-10.8,14.8-10.8c5.3,0,8,2.4,8.8,2.4c0.2,0,0.5-0.2,0.9-0.5l0.3,0.2
		l-3.7,4.6l-0.3-0.2C267.3,46.6,267.4,46.4,267.4,46.3z"/>
	<path fill="#FFFFFF" d="M272.2,53.1c1.4-5,6.4-9,12.4-9s8.9,4,7.6,9c-1.4,5-6.5,9-12.4,9C273.9,62.1,270.9,58.2,272.2,53.1z
		 M280.5,59.7c4,0,7.5-2.8,8.5-6.6c1-3.9-0.9-6.6-5-6.6c-4.1,0-7.5,2.7-8.5,6.6C274.4,57,276.3,59.7,280.5,59.7z"/>
	<path fill="#FFFFFF" d="M316,49.5c-0.6,2.4-2.5,4-5.3,4.6l2.1,5.8c0.4,1,0.7,1.5,1.3,1.5l-0.1,0.4h-5l0.1-0.4h0.1
		c0.3,0,0.5-0.2,0.6-0.4c0-0.1,0-0.2-0.1-0.4l-2.3-6.3h-5.8l-1.6,5.8c-0.2,0.8-0.1,1,0.6,1.2l-0.1,0.5h-5l0.1-0.5
		c0.8-0.2,1-0.4,1.2-1.2l3.7-14c0.2-0.8,0.1-1-0.6-1.2l0.1-0.5h9.9C314.9,44.5,316.8,46.4,316,49.5z M303.5,47.2l-1.2,4.5h6.8
		c2.3,0,3.5-0.7,4-2.3c0.4-1.5-0.5-2.2-2.8-2.2H303.5z"/>
	<path fill="#FFFFFF" d="M324.4,61.3l-0.1,0.5h-5l0.1-0.5c0.8-0.2,1-0.4,1.2-1.2l3.7-14c0.2-0.8,0.1-1-0.6-1.2l0.1-0.5h9.5
		c4.8,0,6.8,1.9,5.9,5c-0.9,3.4-3.9,4.8-9.1,4.8h-5l-1.5,5.8C323.6,60.9,323.7,61.1,324.4,61.3z M327.3,47.2l-1.2,4.5h6.4
		c2.3,0,3.5-0.7,3.9-2.3c0.4-1.5-0.5-2.2-2.7-2.2H327.3z"/>
	<path fill="#FFFFFF" d="M345.5,58.3c1.1,0,1.7,0.8,1.4,1.9c-0.3,1.1-1.4,1.9-2.4,1.9c-1,0-1.7-0.9-1.4-1.9
		C343.3,59.2,344.4,58.3,345.5,58.3z"/>
</g>
</svg>
